<svg id="add" xmlns="http://www.w3.org/2000/svg" width="22.519" height="22.519" viewBox="0 0 22.519 22.519">
  <g id="Group_76" data-name="Group 76">
    <g id="Group_75" data-name="Group 75">
      <path id="Path_57" data-name="Path 57" d="M11.26,0a11.26,11.26,0,1,0,11.26,11.26A11.272,11.272,0,0,0,11.26,0Zm0,20.775a9.515,9.515,0,1,1,9.515-9.515A9.526,9.526,0,0,1,11.26,20.775Z" fill="#00b3e3"/>
    </g>
  </g>
  <g id="Group_78" data-name="Group 78" transform="translate(6.026 5.948)">
    <g id="Group_77" data-name="Group 77">
      <path id="Path_58" data-name="Path 58" d="M146.616,139.6h-3.489V136.11a.872.872,0,1,0-1.744,0V139.6h-3.489a.872.872,0,1,0,0,1.744h3.489v3.489a.872.872,0,1,0,1.744,0v-3.489h3.489a.872.872,0,1,0,0-1.744Z" transform="translate(-137.022 -135.238)" fill="#00b3e3"/>
    </g>
  </g>
</svg>
